<svg xmlns="http://www.w3.org/2000/svg" version="1.1" xmlns:xlink="http://www.w3.org/1999/xlink" xmlns:svgjs="http://svgjs.dev/svgjs" viewBox="0 0 1920 1080" class="overflow-hidden rounded-md drop-shadow-lg transition duration-300" style="overflow: hidden; height: 85vh;"><rect width="1920" height="1080" fill="#ee2761"></rect><g clip-path="url(&quot;#SvgjsClipPath1069&quot;)"><g transform="matrix(0.8809511095868247,0.73920575113952,-0.73920575113952,0.8809511095868247,512.1389401137785,-637.1604809176722)"><path d="M0,-1080C-3.4934575083020385,-988.7539486306296,-27.77556193329451,-722.413260525839,-20.960745049812232,-532.5236917837777C-14.145928166329952,-342.6341230417165,32.46755019085749,-114.20548945248663,40.88890130089368,59.337412452367175C49.31025241092987,232.88031435722098,33.861639166257895,338.112901350798,29.56736161040493,508.7337196453451C25.27308405455197,679.3545379398922,22.78189770062364,898.1629600487023,15.123235965775905,1083.06232221965C7.464574230928169,1267.9616843905978,-13.864069471052167,1438.6402797076398,-16.384608798681484,1618.1298926710315C-18.905148126310802,1797.6195056344231,-2.7307681331135805,2069.688315445172,0,2160L 1920 2160 L 1920 -1080 Z" fill="url(&quot;#SvgjsLinearGradient1064&quot;)"></path><path d="M384,-1080C387.9754884407845,-996.2727028398299,400.3579450345319,-761.6653546213104,407.85293064470693,-577.6362170389793C415.34791625488197,-393.6070794566483,428.7101653430206,-169.6171818666212,428.9699136610503,24.174825493985992C429.22966197908005,217.96683285459318,417.11497833629556,419.58696528689495,409.4114205528853,585.1158271246638C401.70786276947507,750.6446889624327,387.31611487979063,846.3461623639354,382.74856696058885,1017.3479965205995C378.18101904138706,1188.3498306772635,381.79756086443933,1420.6848314847484,382.00613303767454,1611.1268320646486C382.21470521090976,1801.5688326445488,383.6676888396124,2068.5211386774413,384,2160L 1920 2160 L 1920 -1080 Z" fill="url(&quot;#SvgjsLinearGradient1065&quot;)"></path><path d="M768,-1080C760.8430808427192,-1007.5162976871807,727.8011932911802,-808.0605684745942,725.0584850563151,-645.0977861230841C722.3157768214501,-482.135003771574,742.51589248198,-257.2046592294101,751.5437505908095,-102.22330589093966C760.571608699639,52.75804744753077,783.9054823423238,146.14415779279568,779.2256337092917,284.79033390773844C774.5457850762597,423.4365100226812,717.162794734133,577.6249695949432,723.464658792617,729.6537507987169C729.7665228511011,881.6825320024907,808.0523962801589,1044.1838391680149,817.0368180601962,1196.963021130381C826.0212398402335,1349.7422030927473,785.5439924828739,1485.8226794279785,777.3711894728413,1646.328842572915C769.1983864628086,1806.8350057178513,769.5618649121402,2074.388140428819,768,2160L 1920 2160 L 1920 -1080 Z" fill="url(&quot;#SvgjsLinearGradient1066&quot;)"></path><path d="M1152,-1080C1153.4475146473912,-987.0071352037581,1161.3661937622637,-692.483342252248,1160.6850878843475,-522.042811222549C1160.0039820064312,-351.6022801928499,1139.7183456684622,-242.88354155662284,1147.913364732502,-57.35681382180567C1156.1083837965418,128.1699139130115,1209.9764228728225,394.83189436917075,1209.8552022685867,591.1175551863541C1209.733981664351,787.4032160035375,1155.0570619557639,946.7535826485264,1147.1860411070875,1120.3571510812947C1139.315020258411,1293.960719514063,1161.8267506943764,1459.4651576298465,1162.6290771765284,1632.738965782964C1163.4314036586804,1806.0127739360814,1153.7715128627547,2072.123160963827,1152,2160L 1920 2160 L 1920 -1080 Z" fill="url(&quot;#SvgjsLinearGradient1067&quot;)"></path><path d="M1536,-1080C1526.2139485765194,-980.6339126230255,1485.3166151035457,-667.0400995931831,1477.2836914591167,-483.80347573815277C1469.2507678146876,-300.56685188312247,1484.9652526744403,-145.12557883753513,1487.802458133425,19.4197431301821C1490.6396635924098,183.96506509789933,1487.3862940421193,333.7214794704281,1494.306924213025,503.46845606815066C1501.2275543839307,673.2154326658732,1518.2410179977635,857.9446453824694,1529.3262391588594,1037.9016027165173C1540.4114603199553,1217.8585600505653,1559.7059577060763,1396.1938005251911,1560.8182511795999,1583.2102000724383C1561.9305446531234,1770.2265996196854,1540.1363751966,2063.8683666787397,1536,2160L 1920 2160 L 1920 -1080 Z" fill="url(&quot;#SvgjsLinearGradient1068&quot;)"></path></g></g><defs><linearGradient x1="0.1" y1="0" x2="0" y2="1" id="SvgjsLinearGradient1064"><stop stop-color="#ee2761" offset="0"></stop><stop stop-color="#ee2782" offset="0"></stop></linearGradient><linearGradient x1="0.1" y1="0" x2="0" y2="1" id="SvgjsLinearGradient1065"><stop stop-color="#da114c" offset="0"></stop><stop stop-color="#da116d" offset="0.2"></stop></linearGradient><linearGradient x1="0.1" y1="0" x2="0" y2="1" id="SvgjsLinearGradient1066"><stop stop-color="#b30e3e" offset="0"></stop><stop stop-color="#b30e59" offset="0.4"></stop></linearGradient><linearGradient x1="0.1" y1="0" x2="0" y2="1" id="SvgjsLinearGradient1067"><stop stop-color="#8c0b31" offset="0"></stop><stop stop-color="#8c0b46" offset="0.6"></stop></linearGradient><linearGradient x1="0.1" y1="0" x2="0" y2="1" id="SvgjsLinearGradient1068"><stop stop-color="#650823" offset="0"></stop><stop stop-color="#650832" offset="0.8"></stop></linearGradient><clipPath id="SvgjsClipPath1069"><rect width="1920" height="1080"></rect></clipPath></defs></svg>